<?xml version="1.0" encoding="UTF-8" standalone="no"?>
<!DOCTYPE svg PUBLIC "-//W3C//DTD SVG 1.1//EN" "http://www.w3.org/Graphics/SVG/1.1/DTD/svg11.dtd">
<svg width="100%" height="100%" viewBox="0 0 2500 2500" version="1.1" xmlns="http://www.w3.org/2000/svg" xmlns:xlink="http://www.w3.org/1999/xlink" xml:space="preserve" xmlns:serif="http://www.serif.com/" style="fill-rule:evenodd;clip-rule:evenodd;stroke-linejoin:round;stroke-miterlimit:2;">
    <g transform="matrix(1,0,0,1,-14.0587,659.159)">
        <path d="M495.859,1661.04L495.859,1337.04L567.459,1337.04L567.459,1612.64L641.859,1612.64L641.859,1661.04L495.859,1661.04Z" style="fill-rule:nonzero;"/>
        <path d="M654.659,1661.04L654.659,1337.04L800.259,1337.04L800.259,1385.84L726.259,1385.84L726.259,1466.24L782.659,1466.24L782.659,1515.84L726.259,1515.84L726.259,1612.64L801.059,1612.64L801.059,1661.04L654.659,1661.04Z" style="fill-rule:nonzero;"/>
        <path d="M801.859,1661.04L863.059,1337.04L944.659,1337.04L1005.06,1661.04L939.059,1661.04L928.259,1592.64L880.659,1592.64L869.459,1661.04L801.859,1661.04ZM887.059,1549.84L921.459,1549.84L904.259,1423.44L887.059,1549.84Z" style="fill-rule:nonzero;"/>
        <path d="M1097.06,1665.84C1074.66,1665.84 1056.99,1661.17 1044.06,1651.84C1031.12,1642.51 1021.93,1629.37 1016.46,1612.44C1010.99,1595.51 1008.26,1575.97 1008.26,1553.84L1008.26,1445.04C1008.26,1422.11 1011.19,1402.24 1017.06,1385.44C1022.93,1368.64 1032.99,1355.64 1047.26,1346.44C1061.53,1337.24 1080.92,1332.64 1105.46,1332.64C1129.46,1332.64 1148.33,1336.64 1162.06,1344.64C1175.79,1352.64 1185.59,1363.71 1191.46,1377.84C1197.33,1391.97 1200.26,1408.51 1200.26,1427.44L1200.26,1448.24L1130.26,1448.24L1130.26,1421.84C1130.26,1414.91 1129.79,1408.51 1128.86,1402.64C1127.92,1396.77 1125.79,1392.04 1122.46,1388.44C1119.12,1384.84 1113.73,1383.04 1106.26,1383.04C1098.53,1383.04 1092.92,1385.11 1089.46,1389.24C1085.99,1393.37 1083.79,1398.51 1082.86,1404.64C1081.92,1410.77 1081.46,1417.17 1081.46,1423.84L1081.46,1573.84C1081.46,1581.04 1082.19,1587.77 1083.66,1594.04C1085.12,1600.31 1087.79,1605.37 1091.66,1609.24C1095.53,1613.11 1101.06,1615.04 1108.26,1615.04C1115.73,1615.04 1121.46,1613.04 1125.46,1609.04C1129.46,1605.04 1132.26,1599.84 1133.86,1593.44C1135.46,1587.04 1136.26,1580.24 1136.26,1573.04L1136.26,1535.04L1107.06,1535.04L1107.06,1493.04L1200.66,1493.04L1200.66,1661.04L1153.46,1661.04L1149.46,1634.24C1145.19,1643.31 1138.92,1650.84 1130.66,1656.84C1122.39,1662.84 1111.19,1665.84 1097.06,1665.84Z" style="fill-rule:nonzero;"/>
        <path d="M1320.26,1665.84C1295.46,1665.84 1276.06,1661.77 1262.06,1653.64C1248.06,1645.51 1238.26,1633.64 1232.66,1618.04C1227.06,1602.44 1224.26,1583.31 1224.26,1560.64L1224.26,1337.04L1295.06,1337.04L1295.06,1571.44C1295.06,1578.11 1295.59,1584.77 1296.66,1591.44C1297.73,1598.11 1300.06,1603.57 1303.66,1607.84C1307.26,1612.11 1312.79,1614.24 1320.26,1614.24C1327.99,1614.24 1333.59,1612.11 1337.06,1607.84C1340.53,1603.57 1342.73,1598.11 1343.66,1591.44C1344.59,1584.77 1345.06,1578.11 1345.06,1571.44L1345.06,1337.04L1416.26,1337.04L1416.26,1560.64C1416.26,1583.31 1413.39,1602.44 1407.66,1618.04C1401.92,1633.64 1392.12,1645.51 1378.26,1653.64C1364.39,1661.77 1345.06,1665.84 1320.26,1665.84Z" style="fill-rule:nonzero;"/>
        <path d="M1443.86,1661.04L1443.86,1337.04L1589.46,1337.04L1589.46,1385.84L1515.46,1385.84L1515.46,1466.24L1571.86,1466.24L1571.86,1515.84L1515.46,1515.84L1515.46,1612.64L1590.26,1612.64L1590.26,1661.04L1443.86,1661.04Z" style="fill-rule:nonzero;"/>
        <rect x="1607.06" y="1337.04" width="71.6" height="324" style="fill-rule:nonzero;"/>
        <path d="M1705.86,1661.04L1705.86,1337.04L1845.86,1337.04L1845.86,1385.44L1777.46,1385.44L1777.46,1467.04L1837.06,1467.04L1837.06,1517.04L1777.46,1517.04L1777.46,1661.04L1705.86,1661.04Z" style="fill-rule:nonzero;"/>
        <path d="M1903.06,1661.04L1903.06,1528.64L1841.46,1337.04L1909.06,1337.04L1939.86,1439.44L1967.46,1337.04L2032.26,1337.04L1971.86,1528.64L1971.86,1661.04L1903.06,1661.04Z" style="fill-rule:nonzero;"/>
    </g>
    <path d="M633.361,756.959C639.913,805.199 658.591,851.447 688.217,885.305C775.242,984.773 874.716,1032.02 931.91,1089.22C989.104,1146.41 934.397,1216.04 934.397,1216.04L956.782,1216.04C956.782,1216.04 1038.83,1146.41 936.884,1051.92C834.933,957.425 695.681,848 718.052,711.234C721.76,688.57 728.131,669.526 736.566,653.876L783.553,606.944C830.039,584.157 891.721,600.012 941.821,644.379C929.2,731.173 918.585,896.342 974.18,1086.73C974.18,1086.73 1013.97,1183.72 1073.65,1230.96C1133.34,1278.21 1197.99,1327.95 1168.14,1395.09C1155.71,1387.63 1145.77,1405.03 1148.26,1414.98C1150.74,1424.93 1165.66,1422.44 1165.66,1422.44C1165.66,1422.44 1145.76,1511.96 1041.32,1623.87C1029.42,1637.75 1017.7,1650.92 1009.01,1663.17L457.249,1110.76C408.158,1061.61 408.205,981.849 457.354,932.758L633.361,756.959ZM1087.27,1741.52C1139.71,1748.53 1201.1,1749.31 1251.32,1748.17C1301.29,1749.3 1362.33,1748.54 1414.61,1741.62L1339.85,1816.29C1290.7,1865.38 1210.94,1865.34 1161.85,1816.19L1087.27,1741.52ZM1493.43,1662.89C1484.75,1650.73 1473.12,1637.64 1461.31,1623.87C1356.87,1511.96 1336.97,1422.44 1336.97,1422.44C1336.97,1422.44 1351.89,1424.93 1354.38,1414.98C1356.86,1405.03 1346.92,1387.63 1334.48,1395.09C1304.65,1327.95 1369.3,1278.21 1428.98,1230.96C1488.66,1183.72 1528.45,1086.73 1528.45,1086.73C1584.05,896.342 1573.43,731.173 1560.81,644.379C1610.87,600.049 1672.49,584.184 1718.96,606.886L1766.26,654.242C1774.6,669.822 1780.9,688.746 1784.57,711.234C1806.95,848 1667.7,957.425 1565.75,1051.92C1463.79,1146.41 1545.85,1216.04 1545.85,1216.04L1568.23,1216.04C1568.23,1216.04 1513.53,1146.41 1570.72,1089.22C1627.92,1032.02 1727.39,984.774 1814.42,885.305C1843.97,851.532 1862.62,805.434 1869.22,757.326L2045.38,933.696C2094.47,982.845 2094.43,1062.6 2045.28,1111.69L1493.43,1662.89ZM1637.17,525.002C1592.61,538.873 1561.23,566.163 1547.98,579.366C1423.52,552.125 1124.04,564.049 1124.04,564.049L1124.09,564.314C1063.41,565.313 1000.73,569.278 954.658,579.367C941.411,566.174 910.075,538.914 865.561,525.033L1162.79,228.158C1211.93,179.067 1291.69,179.115 1340.78,228.263L1637.17,525.002Z"/>
</svg>
